<svg width="325" height="194" viewBox="0 0 325 194" fill="none" xmlns="http://www.w3.org/2000/svg">
<g clip-path="url(#clip0_9646_5609)">
<path d="M248.828 191.806C244.667 188.296 242.139 182.75 242.802 177.352C243.465 171.953 247.57 166.991 252.895 165.844C258.22 164.698 264.29 167.871 265.908 173.065C266.798 163.052 267.824 152.619 273.156 144.092C277.984 136.371 286.346 130.846 295.408 129.858C304.471 128.87 314.013 132.602 319.665 139.744C325.317 146.886 326.701 157.269 322.742 165.468C319.826 171.508 314.454 176.004 308.824 179.661C290.635 191.378 268.819 196.144 247.391 193.079L248.828 191.806Z" fill="#F2F2F2"/>
<path d="M310.703 132.809C303.225 138.89 296.365 145.692 290.222 153.115C280.608 164.692 272.828 177.673 267.154 191.604C266.738 192.62 268.391 193.063 268.802 192.058C278.086 169.417 292.908 149.461 311.912 134.016C312.765 133.322 311.549 132.121 310.703 132.809Z" fill="white"/>
<path d="M104.623 190.852C110.338 186.031 113.809 178.414 112.899 170.999C111.988 163.585 106.35 156.768 99.0359 155.194C91.722 153.619 83.3846 157.978 81.1631 165.111C79.9405 151.358 78.5317 137.029 71.2082 125.317C64.577 114.712 53.0917 107.124 40.6441 105.766C28.1966 104.409 15.0909 109.536 7.32784 119.345C-0.435237 129.155 -2.33599 143.415 3.10106 154.677C7.10635 162.973 14.4855 169.147 22.217 174.17C46.8832 190.196 77.4816 196.879 106.596 192.601" fill="#F2F2F2"/>
<path d="M19.6369 109.82C29.9076 118.173 39.33 127.514 47.7676 137.71C56.2066 147.895 63.6362 158.874 69.9521 170.491C73.4824 177.008 76.6537 183.713 79.4519 190.575C80.0225 191.971 77.7522 192.578 77.188 191.198C72.2317 179.1 66.0997 167.516 58.8801 156.613C51.6955 145.749 43.4724 135.606 34.3262 126.328C29.1531 121.082 23.6951 116.125 17.9768 111.478C16.8047 110.525 18.4745 108.875 19.6369 109.82Z" fill="white"/>
<path d="M233.29 193.575H96.9397V53.8953C96.9397 24.1773 121.155 0 150.919 0H179.31C209.075 0 233.29 24.1773 233.29 53.8953V193.575Z" fill="#F2F2F2"/>
<path d="M204.899 193.575H96.9396V53.8953C96.9098 42.508 100.521 31.4086 107.248 22.2129C107.496 21.8755 107.744 21.5424 107.999 21.2129C111.253 16.952 115.125 13.1996 119.487 10.0793C119.734 9.9003 119.981 9.72438 120.232 9.54846C123.883 7.02617 127.832 4.96424 131.989 3.40962C132.236 3.31619 132.487 3.22258 132.739 3.1328C136.499 1.79309 140.396 0.875396 144.36 0.396661C144.605 0.363149 144.858 0.336926 145.11 0.310701C148.972 -0.101614 152.868 -0.101614 156.73 0.310701C156.981 0.336926 157.234 0.363146 157.482 0.39702C161.445 0.875785 165.341 1.79337 169.1 3.13281C169.352 3.2226 169.603 3.3162 169.851 3.40981C173.957 4.94483 177.859 6.97598 181.471 9.45795C181.722 9.63005 181.973 9.80598 182.22 9.9819C184.666 11.7247 186.963 13.6663 189.088 15.7869C190.792 17.4879 192.38 19.301 193.841 21.214C194.095 21.5424 194.343 21.8755 194.59 22.2124C201.317 31.4081 204.929 42.5078 204.899 53.8953V193.575Z" fill="#CCCCCC"/>
<path d="M196.121 131.102C199.422 131.102 202.098 128.43 202.098 125.134C202.098 121.838 199.422 119.166 196.121 119.166C192.82 119.166 190.144 121.838 190.144 125.134C190.144 128.43 192.82 131.102 196.121 131.102Z" fill="#2E9396"/>
<path d="M222.12 189.392H217.54L215.361 171.754L222.121 171.755L222.12 189.392Z" fill="#FFB8B8"/>
<path d="M214.269 188.085H223.101V193.638H208.708C208.708 192.908 208.852 192.186 209.131 191.513C209.411 190.839 209.82 190.227 210.337 189.711C210.853 189.196 211.466 188.787 212.141 188.508C212.816 188.229 213.539 188.085 214.269 188.085Z" fill="#2F2E41"/>
<path d="M244.908 189.392H240.328L238.149 171.754L244.909 171.755L244.908 189.392Z" fill="#FFB8B8"/>
<path d="M237.056 188.085H245.889V193.638H231.495C231.495 192.908 231.639 192.186 231.918 191.513C232.198 190.839 232.608 190.227 233.124 189.711C233.64 189.196 234.253 188.787 234.928 188.508C235.603 188.229 236.326 188.085 237.056 188.085Z" fill="#2F2E41"/>
<path d="M199.146 126.316C198.816 125.832 198.597 125.281 198.504 124.702C198.411 124.124 198.446 123.532 198.606 122.969C198.767 122.406 199.05 121.884 199.434 121.442C199.818 120.999 200.295 120.646 200.831 120.407L216.399 77.5645L224.06 81.7386L206.284 122.681C206.626 123.606 206.616 124.624 206.257 125.543C205.897 126.461 205.212 127.216 204.332 127.664C203.452 128.112 202.438 128.223 201.482 127.974C200.527 127.726 199.695 127.136 199.146 126.316Z" fill="#FFB8B8"/>
<path d="M242.568 134.367C242.059 134.075 241.621 133.676 241.283 133.197C240.945 132.718 240.717 132.171 240.614 131.594C240.511 131.018 240.535 130.425 240.686 129.859C240.837 129.293 241.111 128.767 241.488 128.318L236.665 82.9978L245.383 83.3955L247.387 127.974C248.101 128.656 248.539 129.575 248.619 130.558C248.699 131.541 248.415 132.519 247.822 133.307C247.228 134.095 246.365 134.638 245.396 134.833C244.428 135.029 243.422 134.863 242.568 134.367Z" fill="#FFB8B8"/>
<path d="M228.66 69.6288C233.727 69.6288 237.835 65.5274 237.835 60.4681C237.835 55.4088 233.727 51.3074 228.66 51.3074C223.593 51.3074 219.485 55.4088 219.485 60.4681C219.485 65.5274 223.593 69.6288 228.66 69.6288Z" fill="#FFB8B8"/>
<path d="M242.51 124.059H214.848L214.882 123.844C214.931 123.523 219.812 91.6046 216.212 81.1624C215.851 80.1362 215.883 79.0129 216.301 78.0087C216.72 77.0045 217.496 76.1904 218.48 75.7231C223.624 73.3042 233.5 70.3256 241.835 77.5541C243.061 78.6353 244.019 79.9866 244.632 81.5011C245.246 83.0156 245.498 84.6518 245.368 86.2803L242.51 124.059Z" fill="#2E9396"/>
<path d="M220.161 96.3215L207.708 93.799L213.545 79.9877C213.894 78.65 214.761 77.5053 215.954 76.8046C217.148 76.1039 218.571 75.9044 219.912 76.25C221.252 76.5955 222.401 77.4579 223.106 78.6478C223.811 79.8378 224.014 81.2583 223.671 82.5977L220.161 96.3215Z" fill="#2E9396"/>
<path d="M236.111 101.005L235.362 83.8701C234.794 80.649 236.641 77.604 239.481 77.1063C242.323 76.6104 245.097 78.8444 245.667 82.0892L248.481 98.1003L236.111 101.005Z" fill="#2E9396"/>
<path d="M241.589 122.008C246.04 138.932 246.526 160.45 245.325 183.922L239.348 183.176L228.515 138.419L222.538 183.922L215.814 183.549C213.805 158.922 211.849 137.779 215.066 123.873L241.589 122.008Z" fill="#2F2E41"/>
<path d="M234.706 67.5477C232.994 69.3681 229.815 68.3908 229.592 65.9039C229.575 65.7108 229.576 65.5165 229.596 65.3237C229.711 64.222 230.349 63.2219 230.196 62.0588C230.161 61.7693 230.053 61.4934 229.882 61.2573C228.518 59.4337 225.316 62.0729 224.029 60.4221C223.24 59.4098 224.167 57.816 223.562 56.6846C222.762 55.1914 220.394 55.928 218.909 55.1102C217.257 54.2004 217.356 51.6694 218.444 50.13C219.77 48.2526 222.096 47.2508 224.392 47.1064C226.689 46.962 228.969 47.5818 231.113 48.4161C233.549 49.3639 235.965 50.6739 237.464 52.8126C239.287 55.4134 239.463 58.91 238.551 61.9512C237.996 63.8012 236.103 66.0611 234.706 67.5477Z" fill="#2F2E41"/>
<path d="M313.786 193.815H37.9867C37.869 193.815 37.7562 193.768 37.673 193.685C37.5899 193.602 37.5432 193.489 37.5432 193.371C37.5432 193.254 37.5899 193.141 37.673 193.058C37.7562 192.974 37.869 192.927 37.9867 192.927H313.786C313.904 192.927 314.017 192.974 314.1 193.058C314.183 193.141 314.23 193.254 314.23 193.371C314.23 193.489 314.183 193.602 314.1 193.685C314.017 193.768 313.904 193.815 313.786 193.815Z" fill="#3F3D56"/>
<path d="M175.201 153.107H126.638C125.998 153.111 125.383 152.861 124.928 152.412C124.473 151.964 124.215 151.353 124.21 150.714V42.4878C124.215 41.8492 124.473 41.2387 124.928 40.7901C125.383 40.3415 125.998 40.0916 126.638 40.095H175.201C175.841 40.0916 176.456 40.3415 176.911 40.7901C177.366 41.2387 177.624 41.8492 177.629 42.4878V150.714C177.624 151.353 177.366 151.964 176.911 152.412C176.456 152.861 175.841 153.111 175.201 153.107Z" fill="white"/>
<path d="M177.629 75.1138H124.21V75.8597H177.629V75.1138Z" fill="#CCCCCC"/>
<path d="M177.816 117.674H124.396V118.42H177.816V117.674Z" fill="#CCCCCC"/>
<path d="M141.767 40.095H141.02V153.48H141.767V40.095Z" fill="#CCCCCC"/>
<path d="M160.445 40.095H159.698V153.48H160.445V40.095Z" fill="#CCCCCC"/>
</g>
<defs>
<clipPath id="clip0_9646_5609">
<rect width="325" height="194" fill="white"/>
</clipPath>
</defs>
</svg>
